# xmcd
#
# Track frame offsets: 
#        150
#        13647
#        31730
#        42820
#        61146
#        74005
#        84532
#        99571
#        117824
#        128708
#        139663
#
# Disc length: 2008 seconds
#
# Revision: 0
# Processed by: cddbd v1.5.2PL0 Copyright (c) Steve Scherf et al.
# Submitted via: ExactAudioCopy v0.99pb5
#
DISCID=8b07d60b
DTITLE=Bayou Country Grass - Volume 3
DYEAR=2009
DGENRE=Country
TTITLE0=Rocky Top
TTITLE1=Faded Love
TTITLE2=Little Birdie
TTITLE3=Kentucky
TTITLE4=Lonesome Feeling
TTITLE5=Nine Pound Hammer
TTITLE6=Big Mamou
TTITLE7=Wake Up
TTITLE8=Head Over Heels
TTITLE9=Fox On The Run
TTITLE10=I'll Fly Away (Bonus Track)
EXTD=
EXTT0=
EXTT1=
EXTT2=
EXTT3=
EXTT4=
EXTT5=
EXTT6=
EXTT7=
EXTT8=
EXTT9=
EXTT10=
PLAYORDER=
